<?xml version="1.0" encoding="utf-8"?>
<!-- Generator: Adobe Illustrator 25.2.3, SVG Export Plug-In . SVG Version: 6.00 Build 0)  -->
<!DOCTYPE svg PUBLIC "-//W3C//DTD SVG 1.1//EN" "http://www.w3.org/Graphics/SVG/1.1/DTD/svg11.dtd" [
	<!ENTITY ns_extend "http://ns.adobe.com/Extensibility/1.0/">
	<!ENTITY ns_ai "http://ns.adobe.com/AdobeIllustrator/10.0/">
	<!ENTITY ns_graphs "http://ns.adobe.com/Graphs/1.0/">
	<!ENTITY ns_vars "http://ns.adobe.com/Variables/1.0/">
	<!ENTITY ns_imrep "http://ns.adobe.com/ImageReplacement/1.0/">
	<!ENTITY ns_sfw "http://ns.adobe.com/SaveForWeb/1.0/">
	<!ENTITY ns_custom "http://ns.adobe.com/GenericCustomNamespace/1.0/">
	<!ENTITY ns_adobe_xpath "http://ns.adobe.com/XPath/1.0/">
]>
<svg version="1.1" id="Default" xmlns:x="&ns_extend;" xmlns:i="&ns_ai;" xmlns:graph="&ns_graphs;"
	 xmlns="http://www.w3.org/2000/svg" xmlns:xlink="http://www.w3.org/1999/xlink" x="0px" y="0px" viewBox="0 0 483 172"
	 style="enable-background:new 0 0 483 172;" xml:space="preserve">
<style type="text/css">
	.st0{fill:#FFFFFF;}
	.st1{fill:none;}
	.st2{fill:none;stroke:#000000;stroke-width:3;}
	.st3{fill:none;stroke:#000000;stroke-width:1.5;}
	.st4{fill:#FFFFFF;stroke:#000000;stroke-width:1.5;}
	.st5{enable-background:new    ;}
	.st6{fill:#F70000;}
	.st7{fill:#63C100;}
	.st8{fill:none;stroke:#000000;stroke-width:1.5;stroke-miterlimit:10;}
</style>
<metadata>
	<sfw  xmlns="&ns_sfw;">
		<slices></slices>
		<sliceSourceBounds  bottomLeftOrigin="true" height="210" width="486.4" x="-3.3" y="0"></sliceSourceBounds>
	</sfw>
</metadata>
<rect class="st0" width="483.1" height="172"/>
<g>
	<path class="st1" d="M-3.3-6.5"/>
	<polygon class="st2" points="68.8,1.5 389,1.5 389,169.7 52.8,169.7 52.8,17.6 	"/>
	<polyline class="st3" points="8.7,41.6 0.7,41.6 0.7,129.6 8.7,129.6 	"/>
	<polyline class="st3" points="445,41.6 453,41.6 453,129.6 445,129.6 	"/>
	<rect x="381" y="113.6" class="st4" width="16" height="16"/>
	<rect x="381" y="41.6" class="st4" width="16" height="16"/>
	<rect x="381" y="65.6" class="st4" width="16" height="16"/>
	<rect x="381" y="89.6" class="st4" width="16" height="16"/>
	<rect x="381" y="137.6" class="st4" width="16" height="16"/>
	<rect x="381" y="17.6" class="st4" width="16" height="16"/>
	<g class="st5">
		<path d="M387,29.6h-1.5V24c-0.5,0.5-1.2,0.9-1.9,1.1v-1.3c0.4-0.1,0.8-0.4,1.3-0.7c0.5-0.4,0.8-0.8,0.9-1.2h1.2V29.6z"/>
		<path d="M394.2,28.2v1.4H389c0.1-0.5,0.2-1,0.5-1.5s0.8-1.1,1.7-1.9c0.7-0.6,1.1-1,1.2-1.3c0.2-0.3,0.3-0.6,0.3-0.9
			s-0.1-0.6-0.3-0.8c-0.2-0.2-0.4-0.3-0.7-0.3c-0.3,0-0.6,0.1-0.7,0.3c-0.2,0.2-0.3,0.5-0.3,0.9l-1.5-0.1c0.1-0.8,0.4-1.4,0.8-1.8
			c0.5-0.4,1-0.5,1.7-0.5c0.8,0,1.4,0.2,1.8,0.6s0.7,0.9,0.7,1.5c0,0.3-0.1,0.7-0.2,1s-0.3,0.6-0.6,1c-0.2,0.2-0.5,0.6-1,1
			s-0.8,0.7-0.9,0.9s-0.2,0.3-0.3,0.4L394.2,28.2L394.2,28.2z"/>
	</g>
	<g class="st5">
		<path d="M387.3,53.6h-1.5V48c-0.5,0.5-1.2,0.9-1.9,1.1v-1.3c0.4-0.1,0.8-0.4,1.3-0.7c0.5-0.4,0.8-0.8,0.9-1.2h1.2V53.6z"/>
		<path d="M392.7,53.6h-1.5V48c-0.5,0.5-1.2,0.9-1.9,1.1v-1.3c0.4-0.1,0.8-0.4,1.3-0.7c0.5-0.4,0.8-0.8,0.9-1.2h1.2V53.6z"/>
	</g>
	<g class="st5">
		<path d="M387,77.6h-1.5V72c-0.5,0.5-1.2,0.9-1.9,1.1v-1.3c0.4-0.1,0.8-0.4,1.3-0.7c0.5-0.4,0.8-0.8,0.9-1.2h1.2V77.6z"/>
		<path d="M391.7,69.8c0.7,0,1.3,0.3,1.8,0.8c0.5,0.6,0.8,1.7,0.8,3.1c0,1.5-0.3,2.5-0.8,3.2c-0.4,0.5-1,0.8-1.8,0.8
			s-1.4-0.3-1.8-0.9s-0.7-1.6-0.7-3.1s0.3-2.5,0.8-3.1C390.4,70.1,391,69.8,391.7,69.8z M391.7,71.1c-0.2,0-0.3,0.1-0.5,0.2
			s-0.2,0.3-0.3,0.6c-0.1,0.4-0.2,1-0.2,1.9s0,1.5,0.1,1.9c0.1,0.3,0.2,0.6,0.3,0.7s0.3,0.2,0.5,0.2s0.3-0.1,0.5-0.2
			s0.2-0.3,0.3-0.6c0.1-0.4,0.2-1,0.2-1.9s0-1.5-0.1-1.9c-0.1-0.3-0.2-0.6-0.3-0.7S391.9,71.1,391.7,71.1z"/>
	</g>
	<g class="st5">
		<path d="M386.4,99.8l1.4-0.2c0,0.3,0.1,0.5,0.3,0.6c0.1,0.1,0.3,0.2,0.6,0.2c0.3,0,0.6-0.1,0.8-0.4s0.4-0.9,0.4-1.8
			c-0.4,0.4-0.8,0.6-1.4,0.6s-1.1-0.2-1.6-0.7c-0.4-0.5-0.7-1.1-0.7-1.8c0-0.8,0.2-1.4,0.7-1.9s1.1-0.7,1.8-0.7
			c0.8,0,1.4,0.3,1.9,0.9s0.8,1.6,0.8,3s-0.3,2.4-0.8,3.1s-1.2,0.9-2,0.9c-0.6,0-1.1-0.2-1.5-0.5S386.5,100.5,386.4,99.8z
			 M389.7,96.6c0-0.5-0.1-0.8-0.3-1.1c-0.2-0.3-0.5-0.4-0.8-0.4s-0.5,0.1-0.7,0.3c-0.2,0.2-0.3,0.6-0.3,1.1s0.1,0.9,0.3,1.1
			c0.2,0.2,0.4,0.4,0.7,0.4c0.3,0,0.5-0.1,0.7-0.3C389.6,97.4,389.7,97,389.7,96.6z"/>
	</g>
	<g class="st5">
		<path d="M387.6,121.5c-0.4-0.2-0.7-0.4-0.8-0.7c-0.2-0.3-0.3-0.6-0.3-0.9c0-0.6,0.2-1.1,0.6-1.4c0.4-0.4,1-0.6,1.7-0.6
			s1.3,0.2,1.7,0.6s0.6,0.9,0.6,1.4c0,0.4-0.1,0.7-0.3,1c-0.2,0.3-0.4,0.5-0.8,0.6c0.4,0.2,0.8,0.4,1,0.8c0.2,0.3,0.3,0.7,0.3,1.1
			c0,0.7-0.2,1.3-0.7,1.7c-0.5,0.4-1.1,0.7-1.8,0.7c-0.7,0-1.3-0.2-1.8-0.6c-0.6-0.4-0.8-1-0.8-1.8c0-0.4,0.1-0.8,0.3-1.2
			C386.8,121.9,387.2,121.6,387.6,121.5z M387.8,123.3c0,0.4,0.1,0.7,0.3,1c0.2,0.2,0.5,0.3,0.8,0.3s0.6-0.1,0.8-0.3
			c0.2-0.2,0.3-0.5,0.3-1c0-0.4-0.1-0.7-0.3-0.9s-0.5-0.3-0.8-0.3c-0.4,0-0.6,0.1-0.8,0.4C387.9,122.7,387.8,123,387.8,123.3z
			 M387.9,120c0,0.3,0.1,0.5,0.3,0.7c0.2,0.2,0.4,0.2,0.7,0.2c0.3,0,0.5-0.1,0.7-0.3s0.3-0.4,0.3-0.7c0-0.3-0.1-0.5-0.3-0.7
			s-0.4-0.3-0.7-0.3c-0.3,0-0.5,0.1-0.7,0.3C388,119.5,387.9,119.7,387.9,120z"/>
	</g>
	<g class="st5">
		<path d="M386.3,143.4V142h5.1v1.1c-0.4,0.4-0.8,1-1.3,1.8c-0.4,0.8-0.8,1.6-1,2.5s-0.3,1.6-0.3,2.3h-1.4c0-1.1,0.2-2.2,0.7-3.3
			s1-2.1,1.7-3L386.3,143.4L386.3,143.4z"/>
	</g>
	<g class="st5">
		<path d="M405.8,53.6v-7.7h1.6v6.4h3.9v1.3H405.8z"/>
		<path d="M412.3,53.6v-7.7h1.6v7.7H412.3z"/>
		<path d="M415.4,53.6v-7.7h1.5l3.2,5.2v-5.2h1.5v7.7H420l-3.1-5v5H415.4z"/>
		<path d="M423.2,53.6v-7.7h5.7v1.3h-4.2v1.7h3.9v1.3h-3.9v2.1h4.3v1.3C429,53.6,423.2,53.6,423.2,53.6z"/>
		<path d="M440,53.6h-1.7l-0.7-1.8h-3.1l-0.6,1.8h-1.7l3-7.7h1.7L440,53.6z M437.1,50.5l-1.1-2.9l-1,2.9H437.1z"/>
	</g>
	<g class="st5">
		<path d="M405.8,77.6v-7.7h1.6v6.4h3.9v1.3C411.3,77.6,405.8,77.6,405.8,77.6z"/>
		<path d="M412.3,77.6v-7.7h1.6v7.7H412.3z"/>
		<path d="M415.4,77.6v-7.7h1.5l3.2,5.2v-5.2h1.5v7.7H420l-3.1-5v5H415.4z"/>
		<path d="M423.2,77.6v-7.7h5.7v1.3h-4.2v1.7h3.9v1.3h-3.9v2.1h4.3v1.3C429,77.6,423.2,77.6,423.2,77.6z"/>
		<path d="M433.4,69.9h3.1c0.6,0,1.1,0,1.4,0.1s0.6,0.2,0.8,0.3c0.2,0.2,0.4,0.4,0.6,0.6s0.2,0.6,0.2,0.9c0,0.4-0.1,0.7-0.3,1
			c-0.2,0.3-0.5,0.5-0.8,0.7c0.5,0.1,0.8,0.4,1.1,0.7c0.3,0.3,0.4,0.7,0.4,1.2c0,0.4-0.1,0.7-0.2,1c-0.2,0.3-0.4,0.6-0.7,0.8
			s-0.6,0.3-1,0.4c-0.3,0-0.9,0-1.9,0.1h-2.6v-7.8C433.5,69.9,433.4,69.9,433.4,69.9z M435,71.1v1.8h1c0.6,0,1,0,1.1,0
			c0.3,0,0.5-0.1,0.6-0.3c0.2-0.2,0.2-0.4,0.2-0.6s-0.1-0.4-0.2-0.6c-0.1-0.1-0.3-0.2-0.6-0.3c-0.2,0-0.6,0-1.3,0H435z M435,74.2
			v2.1h1.4c0.6,0,0.9,0,1.1,0s0.4-0.1,0.6-0.3s0.2-0.4,0.2-0.7c0-0.2-0.1-0.4-0.2-0.6s-0.3-0.3-0.5-0.4s-0.7-0.1-1.4-0.1H435z"/>
	</g>
	<g class="st5">
		<path d="M405.8,101.6v-7.7h1.6v6.4h3.9v1.3C411.3,101.6,405.8,101.6,405.8,101.6z"/>
		<path d="M412.3,101.6v-7.7h1.6v7.7H412.3z"/>
		<path d="M415.4,101.6v-7.7h1.5l3.2,5.2v-5.2h1.5v7.7H420l-3.1-5v5H415.4z"/>
		<path d="M423.2,101.6v-7.7h5.7v1.3h-4.2v1.7h3.9v1.3h-3.9v2.1h4.3v1.3C429,101.6,423.2,101.6,423.2,101.6z"/>
		<path d="M438.4,98.8l1.5,0.5c-0.2,0.8-0.6,1.5-1.2,1.9c-0.5,0.4-1.2,0.6-2.1,0.6c-1,0-1.9-0.4-2.5-1.1s-1-1.7-1-2.9
			c0-1.3,0.3-2.3,1-3s1.5-1.1,2.6-1.1c0.9,0,1.7,0.3,2.3,0.8c0.4,0.3,0.6,0.8,0.8,1.4l-1.5,0.4c-0.1-0.4-0.3-0.7-0.6-0.9
			s-0.6-0.3-1.1-0.3c-0.6,0-1,0.2-1.4,0.6s-0.5,1.1-0.5,2c0,1,0.2,1.7,0.5,2.1s0.8,0.6,1.4,0.6c0.4,0,0.8-0.1,1.1-0.4
			S438.2,99.3,438.4,98.8z"/>
	</g>
	<g class="st5">
		<path d="M405.8,125.6V118h1.6v6.4h3.9v1.3h-5.5V125.6z"/>
		<path d="M412.3,125.6v-7.7h1.6v7.7H412.3z"/>
		<path d="M415.4,125.6v-7.7h1.5l3.2,5.2v-5.2h1.5v7.7H420l-3.1-5v5H415.4z"/>
		<path d="M423.2,125.6v-7.7h5.7v1.3h-4.2v1.7h3.9v1.3h-3.9v2.1h4.3v1.3C429,125.6,423.2,125.6,423.2,125.6z"/>
		<path d="M433.4,117.9h2.9c0.6,0,1.1,0,1.5,0.1c0.5,0.1,0.8,0.4,1.2,0.7c0.3,0.3,0.6,0.8,0.7,1.3c0.2,0.5,0.3,1.1,0.3,1.8
			c0,0.6-0.1,1.2-0.2,1.6c-0.2,0.6-0.5,1-0.8,1.4c-0.3,0.3-0.6,0.5-1.1,0.6c-0.3,0.1-0.8,0.2-1.4,0.2h-2.9v-7.7H433.4z M435,119.2
			v5.1h1.2c0.4,0,0.8,0,0.9-0.1c0.3-0.1,0.5-0.2,0.6-0.3c0.2-0.2,0.3-0.4,0.4-0.7s0.2-0.8,0.2-1.4s-0.1-1.1-0.2-1.4
			s-0.3-0.6-0.4-0.8c-0.2-0.2-0.4-0.3-0.7-0.4c-0.2,0-0.6-0.1-1.3-0.1H435V119.2z"/>
	</g>
	<g class="st5">
		<path d="M466.8,86.8l1.5,0.5c-0.2,0.8-0.6,1.5-1.2,1.9c-0.5,0.4-1.2,0.6-2.1,0.6c-1,0-1.9-0.4-2.5-1.1s-1-1.7-1-2.9
			c0-1.3,0.3-2.3,1-3s1.5-1.1,2.6-1.1c0.9,0,1.7,0.3,2.3,0.8c0.4,0.3,0.6,0.8,0.8,1.4l-1.5,0.4c-0.1-0.4-0.3-0.7-0.6-0.9
			s-0.6-0.3-1.1-0.3c-0.6,0-1,0.2-1.4,0.6s-0.5,1.1-0.5,2c0,1,0.2,1.7,0.5,2.1s0.8,0.6,1.4,0.6c0.4,0,0.8-0.1,1.1-0.4
			S466.7,87.3,466.8,86.8z"/>
		<path d="M469.6,89.6v-7.7h2.5c0.9,0,1.6,0,1.9,0.1c0.4,0.1,0.8,0.4,1.1,0.8c0.3,0.4,0.4,0.9,0.4,1.5c0,0.5-0.1,0.9-0.3,1.2
			c-0.2,0.3-0.4,0.6-0.7,0.8s-0.5,0.3-0.8,0.4c-0.4,0.1-0.9,0.1-1.6,0.1h-1v2.9h-1.5V89.6z M471.2,83.2v2.2h0.9c0.6,0,1,0,1.2-0.1
			s0.4-0.2,0.5-0.4s0.2-0.4,0.2-0.6c0-0.3-0.1-0.5-0.2-0.7c-0.2-0.2-0.4-0.3-0.6-0.3s-0.6-0.1-1.1-0.1H471.2z"/>
		<path d="M476.8,81.9h1.6v4.2c0,0.7,0,1.1,0.1,1.3c0.1,0.3,0.2,0.6,0.5,0.8c0.3,0.2,0.6,0.3,1,0.3s0.8-0.1,1-0.3
			c0.2-0.2,0.4-0.4,0.4-0.7c0-0.3,0.1-0.7,0.1-1.3v-4.3h1.6V86c0,0.9,0,1.6-0.1,2s-0.2,0.7-0.5,1c-0.2,0.3-0.5,0.5-0.9,0.6
			c-0.4,0.2-0.9,0.2-1.5,0.2c-0.7,0-1.3-0.1-1.7-0.3c-0.4-0.2-0.7-0.4-0.9-0.7s-0.4-0.6-0.4-0.9c-0.1-0.4-0.2-1.1-0.2-2v-4
			C476.9,81.9,476.8,81.9,476.8,81.9z"/>
	</g>
	<rect x="44.8" y="17.6" class="st4" width="16" height="16"/>
	<rect x="44.8" y="89.6" class="st4" width="16" height="16"/>
	<rect x="44.8" y="41.6" class="st4" width="16" height="16"/>
	<rect x="44.8" y="65.6" class="st4" width="16" height="16"/>
	<rect x="44.8" y="113.6" class="st4" width="16" height="16"/>
	<rect x="44.8" y="137.6" class="st4" width="16" height="16"/>
	<g class="st5">
		<path d="M14.9,53.6v-7.7h1.6v7.7H14.9z"/>
		<path d="M17.6,49.8c0-0.8,0.1-1.4,0.4-2c0.2-0.4,0.4-0.7,0.7-1.1s0.6-0.5,1-0.7c0.5-0.2,1-0.3,1.7-0.3c1.1,0,2.1,0.4,2.7,1.1
			s1,1.7,1,2.9s-0.3,2.2-1,2.9s-1.6,1.1-2.7,1.1s-2.1-0.4-2.7-1.1S17.6,51,17.6,49.8z M19.2,49.7c0,0.9,0.2,1.5,0.6,2
			s0.9,0.7,1.5,0.7s1.1-0.2,1.5-0.7c0.4-0.4,0.6-1.1,0.6-2s-0.2-1.5-0.6-2C22.5,47.3,22,47,21.4,47s-1.2,0.2-1.6,0.7
			S19.2,48.8,19.2,49.7z"/>
		<path d="M32.8,53.6h-1.5V48c-0.5,0.5-1.2,0.9-1.9,1.1v-1.3c0.4-0.1,0.8-0.4,1.3-0.7c0.5-0.4,0.8-0.8,0.9-1.2h1.2V53.6z"/>
	</g>
	<g class="st5">
		<path d="M14.9,77.6v-7.7h1.6v7.7H14.9z"/>
		<path d="M17.6,73.8c0-0.8,0.1-1.4,0.4-2c0.2-0.4,0.4-0.7,0.7-1.1s0.6-0.5,1-0.7c0.5-0.2,1-0.3,1.7-0.3c1.1,0,2.1,0.4,2.7,1.1
			s1,1.7,1,2.9c0,1.2-0.3,2.2-1,2.9s-1.6,1.1-2.7,1.1s-2.1-0.4-2.7-1.1S17.6,75,17.6,73.8z M19.2,73.7c0,0.9,0.2,1.5,0.6,2
			s0.9,0.7,1.5,0.7s1.1-0.2,1.5-0.7c0.4-0.4,0.6-1.1,0.6-2s-0.2-1.5-0.6-2c-0.4-0.4-0.9-0.7-1.5-0.7s-1.2,0.2-1.6,0.7
			S19.2,72.8,19.2,73.7z"/>
		<path d="M34,76.2v1.4h-5.2c0.1-0.5,0.2-1,0.5-1.5s0.8-1.1,1.7-1.9c0.7-0.6,1.1-1,1.2-1.3c0.2-0.3,0.3-0.6,0.3-0.9
			s-0.1-0.6-0.3-0.8s-0.4-0.3-0.7-0.3c-0.3,0-0.6,0.1-0.7,0.3c-0.2,0.2-0.3,0.5-0.3,0.9H29c0.1-0.8,0.4-1.4,0.8-1.8
			c0.5-0.4,1-0.5,1.7-0.5c0.8,0,1.4,0.2,1.8,0.6s0.7,1,0.7,1.6c0,0.3-0.1,0.7-0.2,1c-0.1,0.3-0.3,0.6-0.6,1c-0.2,0.2-0.5,0.6-1,1
			s-0.8,0.7-0.9,0.9c-0.1,0.1-0.2,0.3-0.3,0.4L34,76.2L34,76.2z"/>
	</g>
	<g class="st5">
		<path d="M14.9,101.6v-7.7h1.6v7.7H14.9z"/>
		<path d="M17.6,97.8c0-0.8,0.1-1.4,0.4-2c0.2-0.4,0.4-0.7,0.7-1.1s0.6-0.5,1-0.7c0.5-0.2,1-0.3,1.7-0.3c1.1,0,2.1,0.4,2.7,1.1
			s1,1.7,1,2.9c0,1.2-0.3,2.2-1,2.9s-1.6,1.1-2.7,1.1s-2.1-0.4-2.7-1.1S17.6,99,17.6,97.8z M19.2,97.7c0,0.9,0.2,1.5,0.6,2
			s0.9,0.7,1.5,0.7s1.1-0.2,1.5-0.7c0.4-0.4,0.6-1.1,0.6-2s-0.2-1.5-0.6-2c-0.4-0.4-0.9-0.7-1.5-0.7s-1.2,0.2-1.6,0.7
			S19.2,96.8,19.2,97.7z"/>
		<path d="M29,99.6l1.4-0.2c0,0.4,0.2,0.6,0.4,0.8c0.2,0.2,0.4,0.3,0.7,0.3c0.3,0,0.6-0.1,0.8-0.3c0.2-0.2,0.3-0.5,0.3-0.9
			s-0.1-0.7-0.3-0.9c-0.2-0.2-0.4-0.3-0.7-0.3c-0.2,0-0.4,0-0.7,0.1l0.2-1.2c0.4,0,0.7-0.1,0.9-0.3c0.2-0.2,0.3-0.4,0.3-0.7
			c0-0.3-0.1-0.5-0.2-0.6s-0.4-0.2-0.6-0.2c-0.3,0-0.5,0.1-0.6,0.3s-0.3,0.4-0.3,0.8l-1.4-0.2c0.1-0.5,0.2-0.8,0.4-1.1
			c0.2-0.3,0.5-0.5,0.8-0.7s0.7-0.2,1.2-0.2c0.7,0,1.3,0.2,1.8,0.7c0.4,0.4,0.5,0.8,0.5,1.3c0,0.7-0.4,1.2-1.1,1.6
			c0.4,0.1,0.8,0.3,1.1,0.6c0.3,0.3,0.4,0.7,0.4,1.2c0,0.7-0.2,1.3-0.7,1.7c-0.5,0.5-1.1,0.7-1.9,0.7c-0.7,0-1.3-0.2-1.7-0.6
			C29.3,100.7,29,100.2,29,99.6z"/>
	</g>
	<g class="st5">
		<path d="M14.9,125.6v-7.7h1.6v7.7H14.9z"/>
		<path d="M17.6,121.8c0-0.8,0.1-1.4,0.4-2c0.2-0.4,0.4-0.7,0.7-1.1c0.3-0.3,0.6-0.5,1-0.7c0.5-0.2,1-0.3,1.7-0.3
			c1.1,0,2.1,0.4,2.7,1.1s1,1.7,1,2.9c0,1.2-0.3,2.2-1,2.9s-1.6,1.1-2.7,1.1s-2.1-0.4-2.7-1.1C18,124,17.6,123,17.6,121.8z
			 M19.2,121.8c0,0.9,0.2,1.5,0.6,2s0.9,0.7,1.5,0.7s1.1-0.2,1.5-0.7c0.4-0.4,0.6-1.1,0.6-2s-0.2-1.5-0.6-2
			c-0.4-0.4-0.9-0.7-1.5-0.7s-1.2,0.2-1.6,0.7S19.2,120.9,19.2,121.8z"/>
		<path d="M31.9,125.6V124h-3.2v-1.3l3.4-4.9h1.2v4.9h1v1.3h-1v1.6H31.9z M31.9,122.8v-2.6l-1.8,2.6H31.9z"/>
	</g>
	<g class="st5">
		<path d="M53.9,29.6h-1.5V24c-0.5,0.5-1.2,0.9-1.9,1.1v-1.3c0.4-0.1,0.8-0.4,1.3-0.7c0.5-0.4,0.8-0.8,0.9-1.2h1.2V29.6z"/>
	</g>
	<g class="st5">
		<path d="M55.1,52.2v1.4h-5.2c0.1-0.5,0.2-1,0.5-1.5s0.8-1.1,1.7-1.9c0.7-0.6,1.1-1,1.2-1.3c0.2-0.3,0.3-0.6,0.3-0.9
			c0-0.3-0.1-0.6-0.3-0.8S52.9,47,52.6,47c-0.3,0-0.6,0.1-0.7,0.3c-0.2,0.2-0.3,0.5-0.3,0.9l-1.5-0.1c0.1-0.8,0.4-1.4,0.8-1.8
			c0.5-0.4,1-0.5,1.7-0.5c0.8,0,1.4,0.2,1.8,0.6s0.7,0.9,0.7,1.5c0,0.3-0.1,0.7-0.2,1c-0.1,0.3-0.3,0.6-0.6,1c-0.2,0.2-0.5,0.6-1,1
			s-0.8,0.7-0.9,0.9c-0.1,0.1-0.2,0.3-0.3,0.4C52.1,52.2,55.1,52.2,55.1,52.2z"/>
	</g>
	<g class="st5">
		<path d="M50.1,75.5l1.4-0.2c0,0.4,0.2,0.6,0.4,0.8c0.2,0.2,0.4,0.3,0.7,0.3s0.6-0.1,0.8-0.3c0.2-0.2,0.3-0.5,0.3-0.9
			s-0.1-0.7-0.3-0.9S53,74,52.7,74c-0.2,0-0.4,0-0.7,0.1l0.2-1.2c0.4,0,0.7-0.1,0.9-0.3c0.2-0.2,0.3-0.4,0.3-0.7
			c0-0.3-0.1-0.5-0.2-0.6S52.8,71,52.5,71s-0.5,0.1-0.6,0.3s-0.3,0.4-0.3,0.8l-1.4-0.2c0.1-0.5,0.2-0.8,0.4-1.1
			c0.2-0.3,0.5-0.5,0.8-0.7s0.7-0.2,1.2-0.2c0.7,0,1.3,0.2,1.8,0.7c0.4,0.4,0.5,0.8,0.5,1.3c0,0.7-0.4,1.2-1.1,1.6
			c0.4,0.1,0.8,0.3,1.1,0.6c0.3,0.3,0.4,0.7,0.4,1.2c0,0.7-0.2,1.3-0.7,1.7c-0.5,0.5-1.1,0.7-1.9,0.7c-0.7,0-1.3-0.2-1.7-0.6
			C50.4,76.7,50.1,76.2,50.1,75.5z"/>
	</g>
	<g class="st5">
		<path d="M53,101.6V100h-3.2v-1.3l3.4-4.9h1.2v4.9h1v1.3h-1v1.6H53z M53,98.8v-2.6l-1.8,2.6H53z"/>
	</g>
	<g class="st5">
		<path d="M50.1,123.6l1.5-0.2c0,0.3,0.2,0.6,0.4,0.8s0.4,0.3,0.7,0.3s0.6-0.1,0.8-0.4s0.3-0.6,0.3-1.1s-0.1-0.8-0.3-1.1
			s-0.5-0.4-0.8-0.4c-0.4,0-0.8,0.2-1.1,0.6l-1.2-0.2l0.8-4H55v1.4h-2.8l-0.2,1.3c0.3-0.2,0.7-0.2,1-0.2c0.7,0,1.2,0.2,1.7,0.7
			s0.7,1.1,0.7,1.9c0,0.6-0.2,1.2-0.6,1.7c-0.5,0.7-1.2,1-2.1,1c-0.7,0-1.3-0.2-1.7-0.6C50.5,124.8,50.2,124.3,50.1,123.6z"/>
	</g>
	<g class="st5">
		<path d="M55.1,143.8l-1.4,0.2c0-0.3-0.1-0.5-0.3-0.7c-0.1-0.1-0.3-0.2-0.6-0.2s-0.6,0.1-0.8,0.4s-0.4,0.9-0.4,1.8
			c0.4-0.4,0.8-0.7,1.4-0.7c0.6,0,1.1,0.2,1.6,0.7s0.7,1.1,0.7,1.8c0,0.8-0.2,1.4-0.7,1.9s-1.1,0.7-1.8,0.7c-0.8,0-1.4-0.3-1.9-0.9
			s-0.8-1.6-0.8-3s0.3-2.4,0.8-3.1c0.5-0.6,1.2-0.9,2-0.9c0.6,0,1.1,0.2,1.5,0.5C54.8,142.7,55,143.2,55.1,143.8z M51.8,147
			c0,0.5,0.1,0.9,0.3,1.1s0.5,0.4,0.8,0.4s0.5-0.1,0.7-0.3s0.3-0.6,0.3-1.1s-0.1-0.9-0.3-1.1c-0.2-0.2-0.4-0.4-0.7-0.4
			s-0.5,0.1-0.7,0.3C51.9,146.3,51.8,146.6,51.8,147z"/>
	</g>
	<line class="st3" x1="381" y1="145.6" x2="365" y2="145.6"/>
	<line class="st3" x1="369" y1="149.6" x2="361" y2="141.6"/>
	<line class="st3" x1="361" y1="149.6" x2="369" y2="141.6"/>
	<g>
		<line class="st3" x1="60.8" y1="25.6" x2="76.8" y2="25.6"/>
		<line class="st3" x1="72.8" y1="21.6" x2="80.8" y2="29.6"/>
		<line class="st3" x1="80.8" y1="21.6" x2="72.8" y2="29.6"/>
	</g>
	<line class="st3" x1="357" y1="25.6" x2="381" y2="25.6"/>
	<g id="arrow">
		<path d="M358.3,25.6l1.7-2.8l-0.1-0.1l-4.6,1.8c-1.6,0.3-3.2,0.7-4.7,1c1.6,0.3,3.2,0.7,4.7,1l4.6,1.8l0.1-0.1L358.3,25.6z"/>
	</g>
	<g id="s_diod">
		<g>
			<path class="st3" d="M373,19.6v12l-7.6-6L373,19.6z"/>
			<polyline class="st3" points="361,32 365,32 365,19.2 369,19.2 			"/>
		</g>
	</g>
	<g class="st5">
		<path d="M403.8,27.6l1.5-0.2c0,0.3,0.2,0.6,0.4,0.8c0.2,0.2,0.4,0.3,0.7,0.3c0.3,0,0.6-0.1,0.8-0.4c0.2-0.3,0.3-0.6,0.3-1.1
			s-0.1-0.8-0.3-1.1s-0.5-0.4-0.8-0.4c-0.4,0-0.8,0.2-1.1,0.6L404,26l0.8-4h3.9v1.4h-2.8l-0.2,1.3c0.3-0.2,0.7-0.2,1-0.2
			c0.7,0,1.2,0.2,1.7,0.7s0.7,1.1,0.7,1.9c0,0.6-0.2,1.2-0.6,1.7c-0.5,0.7-1.2,1-2.1,1c-0.7,0-1.3-0.2-1.7-0.6
			C404.1,28.7,403.9,28.2,403.8,27.6z"/>
		<path d="M412.1,29.6l-2.8-7.7h1.7l2,5.7l1.9-5.7h1.7l-2.8,7.7C413.8,29.6,412.1,29.6,412.1,29.6z"/>
	</g>
	<g>
		<line class="st3" x1="60" y1="145.6" x2="76" y2="145.6"/>
		<line class="st2" x1="76" y1="153.6" x2="76" y2="137.6"/>
	</g>
	<path d="M373.3,72.8l-1.7-2.8l0.1-0.1l4.6,1.8c1.6,0.3,3.2,0.7,4.7,1c-1.6,0.3-3.2,0.7-4.7,1l-4.6,1.8l-0.1-0.1L373.3,72.8z"/>
	<path d="M280,73.9L280,73.9l-4.6-1.8c-1.6-0.3-3.2-0.7-4.7-1c1.6-0.3,3.2-0.7,4.7-1l4.6-1.8l0.1,0.1l-1.7,2.8L280,73.9z"/>
	<path d="M280,121.9L280,121.9l-4.6-1.8c-1.6-0.3-3.2-0.7-4.7-1c1.6-0.3,3.2-0.7,4.7-1l4.6-1.8l0.1,0.1l-1.7,2.8L280,121.9z"/>
	<path d="M280,145.9L280,145.9l-4.6-1.8c-1.6-0.3-3.2-0.7-4.7-1c1.6-0.3,3.2-0.7,4.7-1l4.6-1.8l0.1,0.1l-1.7,2.8L280,145.9z"/>
	<g class="st5">
		<path d="M308,47.2v-6.4h-2.3v-1.3h6.1v1.3h-2.3v6.4H308z"/>
		<path d="M312.1,47.2l2.6-4l-2.4-3.7h1.8l1.6,2.5l1.5-2.5h1.8l-2.4,3.8l2.6,4h-1.9l-1.7-2.7l-1.7,2.7L312.1,47.2L312.1,47.2z"/>
	</g>
	<g class="st5">
		<path d="M70.5,44.3l1.5,0.5c-0.2,0.8-0.6,1.5-1.2,1.9c-0.5,0.4-1.2,0.6-2.1,0.6c-1,0-1.9-0.4-2.5-1.1s-1-1.7-1-2.9
			c0-1.3,0.3-2.3,1-3s1.5-1.1,2.6-1.1c0.9,0,1.7,0.3,2.3,0.8c0.4,0.3,0.6,0.8,0.8,1.4l-1.5,0.4c-0.1-0.4-0.3-0.7-0.6-0.9
			s-0.6-0.3-1.1-0.3c-0.6,0-1,0.2-1.4,0.6s-0.5,1.1-0.5,2c0,1,0.2,1.7,0.5,2.1s0.8,0.6,1.4,0.6c0.4,0,0.8-0.1,1.1-0.4
			C70.2,45.3,70.4,44.9,70.5,44.3z"/>
		<path d="M73.4,47.2v-7.7H75v3h3v-3h1.6v7.7H78v-3.4h-3.1v3.4H73.4z"/>
		<path d="M84.6,47.2h-1.5v-5.6c-0.5,0.5-1.2,0.9-1.9,1.1v-1.3c0.4-0.1,0.8-0.4,1.3-0.7c0.5-0.4,0.8-0.8,0.9-1.2h1.2V47.2z"/>
	</g>
	<g class="st5">
		<path d="M306.2,71.2v-7.7h3.3c0.8,0,1.4,0.1,1.8,0.2c0.4,0.1,0.7,0.4,0.9,0.7c0.2,0.4,0.3,0.8,0.3,1.2c0,0.6-0.2,1.1-0.5,1.4
			c-0.3,0.4-0.9,0.6-1.5,0.7c0.3,0.2,0.6,0.4,0.8,0.6c0.2,0.2,0.5,0.7,0.9,1.3l0.9,1.5h-1.9l-1.1-1.7c-0.4-0.6-0.7-1-0.8-1.1
			c-0.1-0.2-0.3-0.3-0.5-0.3c-0.2-0.1-0.4-0.1-0.8-0.1h-0.3v3.2h-1.5L306.2,71.2L306.2,71.2z M307.8,66.7h1.2c0.7,0,1.2,0,1.4-0.1
			c0.2-0.1,0.3-0.2,0.4-0.3s0.2-0.3,0.2-0.6c0-0.3-0.1-0.5-0.2-0.6c-0.1-0.2-0.3-0.3-0.6-0.3c-0.1,0-0.5,0-1.1,0h-1.2L307.8,66.7
			L307.8,66.7z"/>
		<path d="M313.3,71.2l2.6-4l-2.4-3.7h1.8l1.6,2.5l1.5-2.5h1.8l-2.4,3.8l2.6,4h-1.9l-1.7-2.7l-1.7,2.7h-1.8V71.2z"/>
	</g>
	<g class="st5">
		<path d="M306.2,95.2v-7.7h3.3c0.8,0,1.4,0.1,1.8,0.2s0.7,0.4,0.9,0.7c0.2,0.4,0.3,0.8,0.3,1.2c0,0.6-0.2,1.1-0.5,1.4
			c-0.3,0.4-0.9,0.6-1.5,0.7c0.3,0.2,0.6,0.4,0.8,0.6c0.2,0.2,0.5,0.7,0.9,1.3l0.9,1.5h-1.9l-1.1-1.7c-0.4-0.6-0.7-1-0.8-1.1
			c-0.1-0.2-0.3-0.3-0.5-0.3c-0.2-0.1-0.4-0.1-0.8-0.1h-0.3v3.2h-1.5L306.2,95.2L306.2,95.2z M307.8,90.7h1.2c0.7,0,1.2,0,1.4-0.1
			c0.2-0.1,0.3-0.2,0.4-0.3s0.2-0.3,0.2-0.6c0-0.3-0.1-0.5-0.2-0.6c-0.1-0.2-0.3-0.3-0.6-0.3c-0.1,0-0.5,0-1.1,0h-1.2L307.8,90.7
			L307.8,90.7z"/>
		<path d="M315.8,95.2v-6.4h-2.3v-1.3h6.1v1.3h-2.3v6.4H315.8z"/>
		<path d="M320.2,92.7l1.5-0.1c0.1,0.5,0.3,0.9,0.6,1.1c0.3,0.2,0.7,0.4,1.1,0.4c0.5,0,0.9-0.1,1.1-0.3c0.3-0.2,0.4-0.5,0.4-0.7
			s-0.1-0.3-0.2-0.5c-0.1-0.1-0.3-0.2-0.6-0.3c-0.2-0.1-0.6-0.2-1.3-0.3c-0.8-0.2-1.4-0.5-1.8-0.8c-0.5-0.4-0.7-0.9-0.7-1.6
			c0-0.4,0.1-0.8,0.3-1.1s0.5-0.6,1-0.8c0.4-0.2,0.9-0.3,1.5-0.3c1,0,1.7,0.2,2.2,0.6s0.7,1,0.8,1.7l-1.6,0.1
			c-0.1-0.4-0.2-0.7-0.4-0.9c-0.2-0.2-0.5-0.3-1-0.3s-0.8,0.1-1.1,0.3c-0.2,0.1-0.2,0.3-0.2,0.5s0.1,0.3,0.2,0.5
			c0.2,0.2,0.7,0.3,1.4,0.5c0.8,0.2,1.3,0.4,1.7,0.6c0.4,0.2,0.6,0.5,0.9,0.8c0.2,0.3,0.3,0.7,0.3,1.2c0,0.4-0.1,0.9-0.4,1.2
			c-0.2,0.4-0.6,0.7-1,0.9s-1,0.3-1.7,0.3c-1,0-1.7-0.2-2.3-0.7C320.7,94.2,320.3,93.6,320.2,92.7z"/>
	</g>
	<g>
		<path d="M306.2,119.2v-7.7h2.3l1.4,5.3l1.4-5.3h2.3v7.7h-1.5v-6.1l-1.5,6.1h-1.5l-1.5-6.1v6.1H306.2z"/>
		<path d="M320.2,116.4l1.5,0.5c-0.2,0.8-0.6,1.5-1.2,1.9c-0.5,0.4-1.2,0.6-2.1,0.6c-1,0-1.9-0.4-2.5-1.1c-0.7-0.7-1-1.7-1-2.9
			c0-1.3,0.3-2.3,1-3s1.5-1.1,2.6-1.1c0.9,0,1.7,0.3,2.3,0.8c0.4,0.3,0.6,0.8,0.8,1.4l-1.5,0.4c-0.1-0.4-0.3-0.7-0.6-0.9
			s-0.6-0.3-1.1-0.3c-0.6,0-1,0.2-1.4,0.6s-0.5,1.1-0.5,2c0,1,0.2,1.7,0.5,2.1s0.8,0.6,1.4,0.6c0.4,0,0.8-0.1,1.1-0.4
			S320.1,116.9,320.2,116.4z"/>
		<path d="M323.1,119.2v-7.7h1.6v6.4h3.9v1.3C328.6,119.2,323.1,119.2,323.1,119.2z"/>
		<path d="M329.6,119.2v-7.7h3.3c0.8,0,1.4,0.1,1.8,0.2s0.7,0.4,0.9,0.7c0.2,0.4,0.3,0.8,0.3,1.2c0,0.6-0.2,1.1-0.5,1.4
			c-0.3,0.4-0.9,0.6-1.5,0.7c0.3,0.2,0.6,0.4,0.8,0.6c0.2,0.2,0.5,0.7,0.9,1.3l0.9,1.5h-1.9l-1.1-1.7c-0.4-0.6-0.7-1-0.8-1.1
			c-0.1-0.2-0.3-0.3-0.5-0.3c-0.2-0.1-0.4-0.1-0.8-0.1h-0.3v3.2h-1.5L329.6,119.2L329.6,119.2z M331.2,114.8h1.2
			c0.7,0,1.2,0,1.4-0.1c0.2-0.1,0.3-0.2,0.4-0.3s0.2-0.3,0.2-0.6c0-0.3-0.1-0.5-0.2-0.6c-0.1-0.2-0.3-0.3-0.6-0.3
			c-0.1,0-0.5,0-1.1,0h-1.2L331.2,114.8L331.2,114.8z"/>
	</g>
	<g class="st5">
		<path d="M70.5,68.3l1.5,0.5c-0.2,0.8-0.6,1.5-1.2,1.9c-0.5,0.4-1.2,0.6-2.1,0.6c-1,0-1.9-0.4-2.5-1.1s-1-1.7-1-2.9
			c0-1.3,0.3-2.3,1-3c0.7-0.7,1.5-1.1,2.6-1.1c0.9,0,1.7,0.3,2.3,0.8c0.4,0.3,0.6,0.8,0.8,1.4L70.5,66c-0.1-0.4-0.3-0.7-0.6-0.9
			s-0.6-0.3-1.1-0.3c-0.6,0-1,0.2-1.4,0.6s-0.5,1.1-0.5,2c0,1,0.2,1.7,0.5,2.1s0.8,0.6,1.4,0.6c0.4,0,0.8-0.1,1.1-0.4
			C70.2,69.3,70.4,68.9,70.5,68.3z"/>
		<path d="M73.4,71.2v-7.7H75v3h3v-3h1.6v7.7H78v-3.4h-3.1v3.4H73.4z"/>
		<path d="M85.8,69.8v1.4h-5.2c0.1-0.5,0.2-1,0.5-1.5s0.8-1.1,1.7-1.9c0.7-0.6,1.1-1,1.2-1.3c0.2-0.3,0.3-0.6,0.3-0.9
			S84.2,65,84,64.8s-0.4-0.3-0.7-0.3c-0.3,0-0.6,0.1-0.7,0.3c-0.2,0.2-0.3,0.5-0.3,0.9l-1.5-0.1c0.1-0.8,0.4-1.4,0.8-1.8
			c0.5-0.4,1-0.5,1.7-0.5c0.8,0,1.4,0.2,1.8,0.6s0.7,0.9,0.7,1.5c0,0.3-0.1,0.7-0.2,1s-0.3,0.6-0.6,1c-0.2,0.2-0.5,0.6-1,1
			s-0.8,0.7-0.9,0.9c-0.1,0.1-0.2,0.3-0.3,0.4L85.8,69.8L85.8,69.8z"/>
	</g>
	<g class="st5">
		<path d="M70.5,92.4l1.5,0.5c-0.2,0.8-0.6,1.5-1.2,1.9c-0.5,0.4-1.2,0.6-2.1,0.6c-1,0-1.9-0.4-2.5-1.1s-1-1.7-1-2.9
			c0-1.3,0.3-2.3,1-3s1.5-1.1,2.6-1.1c0.9,0,1.7,0.3,2.3,0.8c0.4,0.3,0.6,0.8,0.8,1.4L70.5,90c-0.1-0.4-0.3-0.7-0.6-0.9
			s-0.6-0.3-1.1-0.3c-0.6,0-1,0.2-1.4,0.6s-0.5,1.1-0.5,2c0,1,0.2,1.7,0.5,2.1s0.8,0.6,1.4,0.6c0.4,0,0.8-0.1,1.1-0.4
			C70.2,93.3,70.4,92.9,70.5,92.4z"/>
		<path d="M73.4,95.2v-7.7H75v3h3v-3h1.6v7.7H78v-3.4h-3.1v3.4H73.4z"/>
		<path d="M80.8,93.2l1.4-0.2c0,0.4,0.2,0.6,0.4,0.8c0.2,0.2,0.4,0.3,0.7,0.3c0.3,0,0.6-0.1,0.8-0.3c0.2-0.2,0.3-0.5,0.3-0.9
			s-0.1-0.7-0.3-0.9c-0.2-0.2-0.4-0.3-0.7-0.3c-0.2,0-0.4,0-0.7,0.1l0.2-1.2c0.4,0,0.7-0.1,0.9-0.3c0.2-0.2,0.3-0.4,0.3-0.7
			c0-0.3-0.1-0.5-0.2-0.6s-0.4-0.2-0.6-0.2c-0.3,0-0.5,0.1-0.6,0.3s-0.3,0.4-0.3,0.8L81,89.7c0.1-0.5,0.2-0.8,0.4-1.1
			c0.2-0.3,0.5-0.5,0.8-0.7s0.7-0.2,1.2-0.2c0.7,0,1.3,0.2,1.8,0.7c0.4,0.4,0.5,0.8,0.5,1.3c0,0.7-0.4,1.2-1.1,1.6
			c0.4,0.1,0.8,0.3,1.1,0.6c0.3,0.3,0.4,0.7,0.4,1.2c0,0.7-0.2,1.3-0.7,1.7c-0.5,0.5-1.1,0.7-1.9,0.7c-0.7,0-1.3-0.2-1.7-0.6
			C81.1,94.3,80.9,93.8,80.8,93.2z"/>
	</g>
	<g class="st5">
		<path d="M70.5,116.4l1.5,0.5c-0.2,0.8-0.6,1.5-1.2,1.9c-0.5,0.4-1.2,0.6-2.1,0.6c-1,0-1.9-0.4-2.5-1.1c-0.7-0.7-1-1.7-1-2.9
			c0-1.3,0.3-2.3,1-3s1.5-1.1,2.6-1.1c0.9,0,1.7,0.3,2.3,0.8c0.4,0.3,0.6,0.8,0.8,1.4l-1.5,0.4c-0.1-0.4-0.3-0.7-0.6-0.9
			s-0.6-0.3-1.1-0.3c-0.6,0-1,0.2-1.4,0.6s-0.5,1.1-0.5,2c0,1,0.2,1.7,0.5,2.1s0.8,0.6,1.4,0.6c0.4,0,0.8-0.1,1.1-0.4
			C70.2,117.4,70.4,116.9,70.5,116.4z"/>
		<path d="M73.4,119.2v-7.7H75v3h3v-3h1.6v7.7H78v-3.4h-3.1v3.4H73.4z"/>
		<path d="M83.7,119.2v-1.6h-3.2v-1.3l3.4-4.9h1.2v4.9h1v1.3h-1v1.6H83.7z M83.7,116.4v-2.6l-1.8,2.6H83.7z"/>
	</g>
	<rect x="127.6" y="62.4" class="st4" width="64" height="89.1"/>
	<g class="st5">
		<path d="M203.6,139.8l1.5-0.1c0.1,0.5,0.3,0.9,0.6,1.1c0.3,0.2,0.7,0.4,1.1,0.4c0.5,0,0.9-0.1,1.1-0.3s0.4-0.5,0.4-0.7
			s-0.1-0.3-0.2-0.5c-0.1-0.1-0.3-0.2-0.6-0.3c-0.2-0.1-0.6-0.2-1.3-0.3c-0.8-0.2-1.4-0.5-1.8-0.8c-0.5-0.4-0.7-0.9-0.7-1.6
			c0-0.4,0.1-0.8,0.3-1.1s0.5-0.6,1-0.8c0.4-0.2,0.9-0.3,1.5-0.3c1,0,1.7,0.2,2.2,0.6s0.7,1,0.8,1.7l-1.6,0.1
			c-0.1-0.4-0.2-0.7-0.4-0.9s-0.5-0.3-1-0.3s-0.8,0.1-1.1,0.3c-0.2,0.1-0.2,0.3-0.2,0.5s0.1,0.3,0.2,0.5c0.2,0.2,0.7,0.3,1.4,0.5
			s1.3,0.4,1.7,0.6c0.4,0.2,0.6,0.5,0.9,0.8c0.2,0.3,0.3,0.7,0.3,1.2c0,0.4-0.1,0.9-0.4,1.2s-0.6,0.7-1,0.9c-0.5,0.2-1,0.3-1.7,0.3
			c-1,0-1.7-0.2-2.3-0.7C204,141.3,203.7,140.6,203.6,139.8z"/>
		<path d="M211.2,142.3v-7.7h2.5c0.9,0,1.6,0,1.9,0.1c0.4,0.1,0.8,0.4,1.1,0.8s0.4,0.9,0.4,1.5c0,0.5-0.1,0.9-0.3,1.2
			s-0.4,0.6-0.7,0.8s-0.5,0.3-0.8,0.4c-0.4,0.1-0.9,0.1-1.6,0.1h-1v2.9h-1.5L211.2,142.3L211.2,142.3z M212.8,135.9v2.2h0.9
			c0.6,0,1,0,1.2-0.1s0.4-0.2,0.5-0.4s0.2-0.4,0.2-0.6c0-0.3-0.1-0.5-0.2-0.7c-0.2-0.2-0.4-0.3-0.6-0.3c-0.2,0-0.6-0.1-1.1-0.1
			L212.8,135.9L212.8,135.9z"/>
		<path d="M218.4,142.3v-7.7h1.6v7.7H218.4z"/>
	</g>
	<g class="st5">
		<path d="M141.8,16.5v-2h-2v-1.4h2v-2h1.4v2h2v1.4h-2v2H141.8z"/>
		<path d="M149.9,17.6h-1.5V12c-0.5,0.5-1.2,0.9-1.9,1.1v-1.3c0.4-0.1,0.8-0.4,1.3-0.7c0.5-0.4,0.8-0.8,0.9-1.2h1.2V17.6z"/>
		<path d="M155,17.6V16h-3.2v-1.3l3.4-4.9h1.2v4.9h1V16h-1v1.6H155z M155,14.7v-2.6l-1.8,2.6C153.2,14.7,155,14.7,155,14.7z"/>
		<path d="M160.4,17.6l-2.8-7.7h1.7l2,5.7l1.9-5.7h1.7l-2.8,7.7H160.4z"/>
	</g>
	<g class="st5">
		<path d="M142.6,39.5V38h2.9v1.5H142.6z"/>
		<path d="M149.9,41.6h-1.5V36c-0.5,0.5-1.2,0.9-1.9,1.1v-1.3c0.4-0.1,0.8-0.4,1.3-0.7c0.5-0.4,0.8-0.8,0.9-1.2h1.2V41.6z"/>
		<path d="M155,41.6V40h-3.2v-1.3l3.4-4.9h1.2v4.9h1V40h-1v1.6H155z M155,38.7v-2.6l-1.8,2.6H155z"/>
		<path d="M160.4,41.6l-2.8-7.7h1.7l2,5.7l1.9-5.7h1.7l-2.8,7.7H160.4z"/>
	</g>
	<g>
		<g class="st5">
			<path d="M147.6,95.8h-1.7l-0.7-1.8h-3.1l-0.6,1.8h-1.7l3-7.7h1.7L147.6,95.8z M144.7,92.8l-1.1-2.9l-1,2.9H144.7z"/>
			<path d="M148.4,88.1h2.9c0.6,0,1.1,0,1.5,0.1c0.5,0.1,0.8,0.4,1.2,0.7c0.3,0.3,0.6,0.8,0.7,1.3s0.3,1.1,0.3,1.8
				c0,0.6-0.1,1.2-0.2,1.6c-0.2,0.6-0.5,1-0.8,1.4c-0.3,0.3-0.6,0.5-1.1,0.6c-0.3,0.1-0.8,0.2-1.4,0.2h-2.9v-7.7H148.4z M150,89.4
				v5.1h1.2c0.4,0,0.8,0,0.9-0.1c0.3-0.1,0.5-0.2,0.6-0.3s0.3-0.4,0.4-0.7c0.1-0.3,0.2-0.8,0.2-1.4s-0.1-1.1-0.2-1.4
				c-0.1-0.3-0.3-0.6-0.4-0.7c-0.2-0.2-0.4-0.3-0.7-0.4c-0.2,0-0.6-0.1-1.3-0.1H150z"/>
			<path d="M155.9,89.6v-1.4h5.1v1.1c-0.4,0.4-0.8,1-1.3,1.8c-0.4,0.8-0.8,1.6-1,2.5s-0.3,1.6-0.3,2.3H157c0-1.1,0.2-2.2,0.7-3.3
				c0.4-1.1,1-2.1,1.7-3H155.9z"/>
			<path d="M161.8,93.8l1.4-0.2c0,0.4,0.2,0.6,0.4,0.8c0.2,0.2,0.4,0.3,0.7,0.3s0.6-0.1,0.8-0.3c0.2-0.2,0.3-0.5,0.3-0.9
				s-0.1-0.7-0.3-0.9c-0.2-0.2-0.4-0.3-0.7-0.3c-0.2,0-0.4,0-0.7,0.1l0.2-1.2c0.4,0,0.7-0.1,0.9-0.3c0.2-0.2,0.3-0.4,0.3-0.7
				c0-0.3-0.1-0.5-0.2-0.6s-0.4-0.2-0.6-0.2c-0.3,0-0.5,0.1-0.6,0.3s-0.3,0.4-0.3,0.8l-1.4-0.2c0.1-0.5,0.2-0.8,0.4-1.1
				c0.2-0.3,0.5-0.5,0.8-0.7s0.7-0.2,1.2-0.2c0.7,0,1.3,0.2,1.8,0.7c0.4,0.4,0.5,0.8,0.5,1.3c0,0.7-0.4,1.2-1.1,1.6
				c0.4,0.1,0.8,0.3,1.1,0.6c0.3,0.3,0.4,0.7,0.4,1.2c0,0.7-0.2,1.3-0.7,1.7c-0.5,0.5-1.1,0.7-1.9,0.7c-0.7,0-1.3-0.2-1.7-0.6
				C162.2,95,161.9,94.4,161.8,93.8z"/>
			<path d="M172.9,94.5v1.4h-5.2c0.1-0.5,0.2-1,0.5-1.5s0.8-1.1,1.7-1.9c0.7-0.6,1.1-1,1.2-1.3c0.2-0.3,0.3-0.6,0.3-0.9
				s-0.1-0.6-0.3-0.8s-0.4-0.3-0.7-0.3s-0.6,0.1-0.7,0.3c-0.2,0.2-0.3,0.5-0.3,0.9l-1.5-0.1c0.1-0.8,0.4-1.4,0.8-1.8
				c0.5-0.4,1-0.5,1.7-0.5c0.8,0,1.4,0.2,1.8,0.6s0.7,0.9,0.7,1.5c0,0.3-0.1,0.7-0.2,1c-0.1,0.3-0.3,0.6-0.6,1c-0.2,0.2-0.5,0.6-1,1
				s-0.8,0.7-0.9,0.9c-0.1,0.1-0.2,0.3-0.3,0.4h3V94.5z"/>
			<path d="M173.9,93.8l1.4-0.2c0,0.4,0.2,0.6,0.4,0.8c0.2,0.2,0.4,0.3,0.7,0.3s0.6-0.1,0.8-0.3c0.2-0.2,0.3-0.5,0.3-0.9
				s-0.1-0.7-0.3-0.9c-0.2-0.2-0.4-0.3-0.7-0.3c-0.2,0-0.4,0-0.7,0.1l0.2-1.2c0.4,0,0.7-0.1,0.9-0.3c0.2-0.2,0.3-0.4,0.3-0.7
				c0-0.3-0.1-0.5-0.2-0.6s-0.4-0.2-0.6-0.2c-0.3,0-0.5,0.1-0.6,0.3s-0.3,0.4-0.3,0.8l-1.4-0.2c0.1-0.5,0.2-0.8,0.4-1.1
				c0.2-0.3,0.5-0.5,0.8-0.7s0.7-0.2,1.2-0.2c0.7,0,1.3,0.2,1.8,0.7c0.4,0.4,0.5,0.8,0.5,1.3c0,0.7-0.4,1.2-1.1,1.6
				c0.4,0.1,0.8,0.3,1.1,0.6c0.3,0.3,0.4,0.7,0.4,1.2c0,0.7-0.2,1.3-0.7,1.7c-0.5,0.5-1.1,0.7-1.9,0.7c-0.7,0-1.3-0.2-1.7-0.6
				C174.2,95,173.9,94.4,173.9,93.8z"/>
		</g>
		<g class="st5">
			<path d="M137.2,109.5v-1.6H134v-1.3l3.4-4.9h1.2v4.9h1v1.3h-1v1.6H137.2z M137.2,106.6V104l-1.8,2.6H137.2z"/>
			<path d="M140.4,107.4v-1.5h2.9v1.5H140.4z"/>
			<path d="M149.2,106.6l1.5,0.5c-0.2,0.8-0.6,1.5-1.2,1.9c-0.5,0.4-1.2,0.6-2.1,0.6c-1,0-1.9-0.4-2.5-1.1s-1-1.7-1-2.9
				c0-1.3,0.3-2.3,1-3s1.5-1.1,2.6-1.1c0.9,0,1.7,0.3,2.3,0.8c0.4,0.3,0.6,0.8,0.8,1.4l-1.5,0.4c-0.1-0.4-0.3-0.7-0.6-0.9
				s-0.6-0.3-1.1-0.3c-0.6,0-1,0.2-1.4,0.6s-0.5,1.1-0.5,2c0,1,0.2,1.7,0.5,2.1s0.8,0.6,1.4,0.6c0.4,0,0.8-0.1,1.1-0.4
				C148.8,107.6,149,107.2,149.2,106.6z"/>
			<path d="M152,109.5v-7.7h1.6v3h3.1v-3h1.6v7.7h-1.6v-3.4h-3.1v3.4H152z"/>
			<path d="M169.4,109.5h-1.7l-0.7-1.8h-3.1l-0.6,1.8h-1.7l3-7.7h1.7L169.4,109.5z M166.5,106.4l-1.1-2.9l-1,2.9H166.5z"/>
			<path d="M170.2,101.8h2.9c0.6,0,1.1,0,1.5,0.1c0.5,0.1,0.8,0.4,1.2,0.7c0.3,0.3,0.6,0.8,0.7,1.3s0.3,1.1,0.3,1.8
				c0,0.6-0.1,1.2-0.2,1.6c-0.2,0.6-0.5,1-0.8,1.4c-0.3,0.3-0.6,0.5-1.1,0.6c-0.3,0.1-0.8,0.2-1.4,0.2h-2.9v-7.7H170.2z
				 M171.8,103.1v5.1h1.2c0.4,0,0.8,0,0.9-0.1c0.3-0.1,0.5-0.2,0.6-0.3s0.3-0.4,0.4-0.7c0.1-0.3,0.2-0.8,0.2-1.4s-0.1-1.1-0.2-1.4
				c-0.1-0.3-0.3-0.6-0.4-0.7c-0.2-0.2-0.4-0.3-0.7-0.4c-0.2,0-0.6-0.1-1.3-0.1H171.8z"/>
			<path d="M183,106.6l1.5,0.5c-0.2,0.8-0.6,1.5-1.2,1.9c-0.5,0.4-1.2,0.6-2.1,0.6c-1,0-1.9-0.4-2.5-1.1s-1-1.7-1-2.9
				c0-1.3,0.3-2.3,1-3s1.5-1.1,2.6-1.1c0.9,0,1.7,0.3,2.3,0.8c0.4,0.3,0.6,0.8,0.8,1.4l-1.5,0.4c-0.1-0.4-0.3-0.7-0.6-0.9
				s-0.6-0.3-1.1-0.3c-0.6,0-1,0.2-1.4,0.6s-0.5,1.1-0.5,2c0,1,0.2,1.7,0.5,2.1s0.8,0.6,1.4,0.6c0.4,0,0.8-0.1,1.1-0.4
				C182.6,107.6,182.8,107.2,183,106.6z"/>
		</g>
		<g class="st5">
			<path d="M147.9,125.4h-1c-0.5-0.8-0.9-1.7-1.2-2.5c-0.3-0.9-0.4-1.7-0.4-2.5c0-1,0.2-2,0.5-2.9c0.3-0.8,0.7-1.5,1.1-2.2h1
				c-0.5,1.1-0.8,2-1,2.7s-0.3,1.5-0.3,2.4c0,0.6,0.1,1.2,0.2,1.8s0.3,1.2,0.4,1.7C147.3,124.2,147.6,124.7,147.9,125.4z"/>
			<path d="M148.6,120.6l1.5-0.1c0.1,0.5,0.3,0.9,0.6,1.1s0.7,0.4,1.1,0.4c0.5,0,0.9-0.1,1.1-0.3s0.4-0.5,0.4-0.7s-0.1-0.3-0.2-0.5
				c-0.1-0.1-0.3-0.2-0.6-0.3c-0.2-0.1-0.6-0.2-1.3-0.3c-0.8-0.2-1.4-0.5-1.8-0.8c-0.5-0.4-0.7-0.9-0.7-1.6c0-0.4,0.1-0.8,0.3-1.1
				c0.2-0.3,0.5-0.6,1-0.8c0.4-0.2,0.9-0.3,1.5-0.3c1,0,1.7,0.2,2.2,0.6s0.7,1,0.8,1.7l-1.6,0.1c-0.1-0.4-0.2-0.7-0.4-0.9
				s-0.5-0.3-1-0.3s-0.8,0.1-1.1,0.3c-0.2,0.1-0.2,0.3-0.2,0.5s0.1,0.3,0.2,0.5c0.2,0.2,0.7,0.3,1.4,0.5s1.3,0.4,1.7,0.6
				s0.6,0.5,0.9,0.8c0.2,0.3,0.3,0.7,0.3,1.2c0,0.4-0.1,0.9-0.4,1.2s-0.6,0.7-1,0.9c-0.5,0.2-1,0.3-1.7,0.3c-1,0-1.7-0.2-2.3-0.7
				C149,122.1,148.7,121.5,148.6,120.6z"/>
			<path d="M163.2,123.1h-1.7l-0.7-1.8h-3.1l-0.6,1.8h-1.7l3-7.7h1.7L163.2,123.1z M160.3,120.1l-1.1-2.9l-1,2.9H160.3z"/>
			<path d="M164,123.1v-7.7h3.3c0.8,0,1.4,0.1,1.8,0.2c0.4,0.1,0.7,0.4,0.9,0.7c0.2,0.4,0.3,0.8,0.3,1.2c0,0.6-0.2,1.1-0.5,1.4
				c-0.3,0.4-0.9,0.6-1.5,0.7c0.3,0.2,0.6,0.4,0.8,0.6s0.5,0.7,0.9,1.3l0.9,1.5H169l-1.1-1.7c-0.4-0.6-0.7-1-0.8-1.1
				c-0.1-0.2-0.3-0.3-0.5-0.3c-0.2-0.1-0.4-0.1-0.8-0.1h-0.3v3.2H164V123.1z M165.6,118.7h1.2c0.7,0,1.2,0,1.4-0.1s0.3-0.2,0.4-0.3
				c0.1-0.2,0.2-0.3,0.2-0.6c0-0.3-0.1-0.5-0.2-0.6c-0.1-0.2-0.3-0.3-0.6-0.3c-0.1,0-0.5,0-1.1,0h-1.2L165.6,118.7L165.6,118.7z"/>
			<path d="M171.4,125.4c0.3-0.6,0.5-1.1,0.6-1.4s0.2-0.7,0.3-1.2c0.1-0.4,0.2-0.8,0.2-1.2c0-0.4,0.1-0.8,0.1-1.2
				c0-0.8-0.1-1.6-0.3-2.4c-0.2-0.7-0.5-1.7-1-2.7h1c0.5,0.8,0.9,1.6,1.2,2.4s0.4,1.7,0.4,2.6c0,0.7-0.1,1.5-0.3,2.4
				c-0.3,0.9-0.7,1.9-1.3,2.8h-0.9V125.4z"/>
		</g>
	</g>
	<rect x="223.4" y="62.4" class="st4" width="48" height="89.1"/>
	<path class="st3" d="M140.6,19.2"/>
	<path class="st3" d="M245.5-38"/>
	<polyline class="st3" points="274.6,143.1 282.8,143.1 304.3,121.6 381,121.6 	"/>
	<polyline class="st3" points="274.6,119.1 282.8,119.1 304.3,97.6 381,97.6 	"/>
	<polyline class="st3" points="381,72.8 304.3,72.8 282.8,94.3 271.4,94.3 	"/>
	<polyline class="st3" points="381,49.6 304.3,49.6 282.8,71.1 274.6,71.1 	"/>
	<polyline class="st3" points="127.6,143.1 111.3,143.1 89.8,121.6 60.8,121.6 	"/>
	<polyline class="st3" points="127.6,119.1 111.3,119.1 89.8,97.6 60.8,97.6 	"/>
	<polyline class="st3" points="60.8,72.8 89.8,72.8 111.4,94.3 127.6,94.3 	"/>
	<polyline class="st3" points="60.8,49.6 89.8,49.6 111.4,71.1 127.6,71.1 	"/>
	<g class="st5">
		<path d="M251.6,136.4h-7.7v-2.5c0-0.9,0-1.6,0.1-1.9c0.1-0.4,0.4-0.8,0.8-1.1c0.4-0.3,0.9-0.4,1.5-0.4c0.5,0,0.9,0.1,1.2,0.3
			s0.6,0.4,0.8,0.7s0.3,0.5,0.4,0.8c0.1,0.4,0.1,0.9,0.1,1.6v1h2.9v1.5L251.6,136.4L251.6,136.4z M245.2,134.9h2.2V134
			c0-0.6,0-1-0.1-1.2s-0.2-0.4-0.4-0.5s-0.4-0.2-0.6-0.2c-0.3,0-0.5,0.1-0.7,0.2c-0.2,0.2-0.3,0.4-0.3,0.6c0,0.2-0.1,0.6-0.1,1.1
			L245.2,134.9L245.2,134.9z"/>
		<path d="M251.6,129.3h-7.7v-1.6h7.7V129.3z"/>
		<path d="M248.8,121.3l0.5-1.5c0.8,0.2,1.5,0.6,1.9,1.2c0.4,0.5,0.6,1.2,0.6,2.1c0,1-0.4,1.9-1.1,2.5c-0.7,0.7-1.7,1-2.9,1
			c-1.3,0-2.3-0.3-3-1s-1.1-1.5-1.1-2.6c0-0.9,0.3-1.7,0.8-2.3c0.3-0.4,0.8-0.6,1.4-0.8l0.4,1.5c-0.4,0.1-0.7,0.3-0.9,0.6
			c-0.2,0.3-0.3,0.6-0.3,1.1c0,0.6,0.2,1,0.6,1.4s1.1,0.5,2,0.5c1,0,1.7-0.2,2.1-0.5s0.6-0.8,0.6-1.4c0-0.4-0.1-0.8-0.4-1.1
			S249.4,121.4,248.8,121.3z"/>
		<path d="M251.6,115v1.5H246c0.5,0.5,0.9,1.2,1.1,1.9h-1.3c-0.1-0.4-0.4-0.8-0.7-1.3c-0.4-0.5-0.8-0.8-1.2-0.9V115H251.6z"/>
		<path d="M245.8,107.7l0.2,1.4c-0.3,0-0.5,0.1-0.7,0.3c-0.1,0.1-0.2,0.3-0.2,0.6c0,0.3,0.1,0.6,0.4,0.8s0.9,0.4,1.8,0.4
			c-0.4-0.4-0.7-0.8-0.7-1.4s0.2-1.1,0.7-1.6s1.1-0.7,1.8-0.7c0.8,0,1.4,0.2,1.9,0.7s0.7,1.1,0.7,1.8c0,0.8-0.3,1.4-0.9,1.9
			s-1.6,0.8-3,0.8s-2.4-0.3-3.1-0.8c-0.6-0.5-0.9-1.2-0.9-2c0-0.6,0.2-1.1,0.5-1.5C244.7,108.1,245.2,107.8,245.8,107.7z M249,111.1
			c0.5,0,0.9-0.1,1.1-0.3s0.4-0.5,0.4-0.8s-0.1-0.5-0.3-0.7s-0.6-0.3-1.1-0.3s-0.9,0.1-1.1,0.3c-0.2,0.2-0.4,0.4-0.4,0.7
			c0,0.3,0.1,0.5,0.3,0.7C248.3,111,248.6,111.1,249,111.1z"/>
		<path d="M251.6,106.4h-7.7v-5.3h1.3v3.7h1.8v-3.2h1.3v3.2h3.3L251.6,106.4L251.6,106.4z"/>
		<path d="M251.6,96.3v1.5H246c0.5,0.5,0.9,1.2,1.1,1.9h-1.3c-0.1-0.4-0.4-0.8-0.7-1.3c-0.4-0.5-0.8-0.8-1.2-0.9v-1.2H251.6z"/>
		<path d="M247.5,92.9c-0.2,0.4-0.4,0.7-0.7,0.8c-0.3,0.2-0.6,0.3-0.9,0.3c-0.6,0-1.1-0.2-1.4-0.6c-0.4-0.4-0.6-1-0.6-1.7
			s0.2-1.3,0.6-1.7s0.9-0.6,1.4-0.6c0.4,0,0.7,0.1,1,0.3c0.3,0.2,0.5,0.4,0.6,0.8c0.2-0.4,0.4-0.8,0.8-1c0.3-0.2,0.7-0.3,1.1-0.3
			c0.7,0,1.3,0.2,1.7,0.7s0.7,1.1,0.7,1.8c0,0.7-0.2,1.3-0.6,1.8c-0.4,0.6-1,0.8-1.8,0.8c-0.4,0-0.8-0.1-1.2-0.3
			S247.6,93.3,247.5,92.9z M246,92.6c0.3,0,0.5-0.1,0.7-0.3c0.2-0.2,0.2-0.4,0.2-0.7c0-0.3-0.1-0.5-0.3-0.7s-0.4-0.3-0.7-0.3
			s-0.5,0.1-0.7,0.3s-0.3,0.4-0.3,0.7c0,0.3,0.1,0.5,0.3,0.7S245.7,92.6,246,92.6z M249.3,92.7c0.4,0,0.7-0.1,1-0.3
			c0.2-0.2,0.3-0.5,0.3-0.8s-0.1-0.6-0.3-0.8c-0.2-0.2-0.5-0.3-1-0.3c-0.4,0-0.7,0.1-0.9,0.3s-0.3,0.5-0.3,0.8
			c0,0.4,0.1,0.6,0.4,0.8C248.7,92.6,249,92.7,249.3,92.7z"/>
		<path d="M250.3,83.1h1.4v5.2c-0.5-0.1-1-0.2-1.5-0.5s-1.1-0.8-1.9-1.7c-0.6-0.7-1-1.1-1.3-1.2c-0.3-0.2-0.6-0.3-0.9-0.3
			c-0.3,0-0.6,0.1-0.8,0.3c-0.2,0.2-0.3,0.4-0.3,0.7c0,0.3,0.1,0.6,0.3,0.7c0.2,0.2,0.5,0.3,0.9,0.3l-0.1,1.5
			c-0.8-0.1-1.4-0.4-1.8-0.8c-0.4-0.5-0.5-1-0.5-1.7c0-0.8,0.2-1.4,0.6-1.8s0.9-0.7,1.5-0.7c0.3,0,0.7,0.1,1,0.2s0.6,0.3,1,0.6
			c0.2,0.2,0.6,0.5,1,1s0.7,0.8,0.9,0.9c0.1,0.1,0.3,0.2,0.4,0.3v-3H250.3z"/>
		<path d="M249.6,82.1l-0.2-1.5c0.3,0,0.6-0.2,0.8-0.4s0.3-0.4,0.3-0.7c0-0.3-0.1-0.6-0.4-0.8c-0.3-0.2-0.6-0.3-1.1-0.3
			s-0.8,0.1-1.1,0.3s-0.4,0.5-0.4,0.8c0,0.4,0.2,0.8,0.6,1.1l-0.2,1.2l-4-0.8v-3.9h1.4V80l1.3,0.2c-0.2-0.3-0.2-0.7-0.2-1
			c0-0.7,0.2-1.2,0.7-1.7s1.1-0.7,1.9-0.7c0.6,0,1.2,0.2,1.7,0.6c0.7,0.5,1,1.2,1,2.1c0,0.7-0.2,1.3-0.6,1.7
			C250.8,81.7,250.3,82,249.6,82.1z"/>
	</g>
	<g>
		<rect x="341" y="41.6" class="st4" width="16" height="16"/>
		<rect x="343.4" y="44" class="st6" width="11.2" height="11.2"/>
	</g>
	<g>
		<rect x="341" y="65.6" class="st4" width="16" height="16"/>
		<rect x="343.4" y="68" class="st7" width="11.2" height="11.2"/>
	</g>
	<g>
		<rect x="341" y="89.6" class="st4" width="16" height="16"/>
		<rect x="343.4" y="92" class="st6" width="11.2" height="11.2"/>
	</g>
	<g>
		<rect x="341" y="113.6" class="st4" width="16" height="16"/>
		<rect x="343.4" y="116" class="st6" width="11.2" height="11.2"/>
	</g>
	<rect x="168.7" y="11.6" class="st4" width="114.2" height="40.7"/>
	<polyline class="st3" points="135.5,62.4 135.5,20 168.7,20 	"/>
	<polyline class="st3" points="144.3,62.4 144.3,43.9 168.7,43.9 	"/>
	<g class="st5">
		<path d="M195.7,27.7V20h1.6v6.4h3.9v1.3C201.2,27.7,195.7,27.7,195.7,27.7z"/>
		<path d="M201.9,23.9c0-0.8,0.1-1.4,0.4-2c0.2-0.4,0.4-0.7,0.7-1.1s0.6-0.5,1-0.7c0.5-0.2,1-0.3,1.7-0.3c1.1,0,2.1,0.4,2.7,1.1
			s1,1.7,1,2.9c0,1.2-0.3,2.2-1,2.9s-1.6,1.1-2.7,1.1c-1.1,0-2.1-0.4-2.7-1.1S201.9,25.2,201.9,23.9z M203.5,23.9
			c0,0.9,0.2,1.5,0.6,2c0.4,0.5,0.9,0.7,1.5,0.7s1.1-0.2,1.5-0.7c0.4-0.4,0.6-1.1,0.6-2s-0.2-1.5-0.6-2c-0.4-0.4-0.9-0.7-1.5-0.7
			s-1.2,0.2-1.6,0.7S203.5,23,203.5,23.9z"/>
		<path d="M211.7,27.7l-1.8-7.7h1.6l1.2,5.3l1.4-5.3h1.9l1.4,5.4l1.2-5.4h1.6l-1.9,7.7h-1.7L215,22l-1.5,5.8L211.7,27.7L211.7,27.7z
			"/>
		<path d="M223.8,27.7V20h1.5l3.2,5.2V20h1.5v7.7h-1.6l-3.1-5v5H223.8z"/>
		<path d="M231.3,23.9c0-0.8,0.1-1.4,0.4-2c0.2-0.4,0.4-0.7,0.7-1.1s0.6-0.5,1-0.7c0.5-0.2,1-0.3,1.7-0.3c1.1,0,2.1,0.4,2.7,1.1
			s1,1.7,1,2.9c0,1.2-0.3,2.2-1,2.9s-1.6,1.1-2.7,1.1c-1.1,0-2.1-0.4-2.7-1.1S231.3,25.2,231.3,23.9z M232.9,23.9
			c0,0.9,0.2,1.5,0.6,2c0.4,0.5,0.9,0.7,1.5,0.7s1.1-0.2,1.5-0.7c0.4-0.4,0.6-1.1,0.6-2s-0.2-1.5-0.6-2c-0.4-0.4-0.9-0.7-1.5-0.7
			s-1.2,0.2-1.6,0.7S232.9,23,232.9,23.9z"/>
		<path d="M240,27.7V20h1.6v7.7H240z"/>
		<path d="M242.6,25.2l1.5-0.1c0.1,0.5,0.3,0.9,0.6,1.1s0.7,0.4,1.1,0.4c0.5,0,0.9-0.1,1.1-0.3c0.3-0.2,0.4-0.5,0.4-0.7
			s-0.1-0.3-0.2-0.5c-0.1-0.1-0.3-0.2-0.6-0.3c-0.2-0.1-0.6-0.2-1.3-0.3c-0.8-0.2-1.4-0.5-1.8-0.8c-0.5-0.4-0.7-0.9-0.7-1.6
			c0-0.4,0.1-0.8,0.3-1.1s0.5-0.6,1-0.8c0.4-0.2,0.9-0.3,1.5-0.3c1,0,1.7,0.2,2.2,0.6s0.7,1,0.8,1.7l-1.6,0.1
			c-0.1-0.4-0.2-0.7-0.4-0.9c-0.2-0.2-0.5-0.3-1-0.3s-0.8,0.1-1.1,0.3c-0.2,0.1-0.2,0.3-0.2,0.5s0.1,0.3,0.2,0.5
			c0.2,0.2,0.7,0.3,1.4,0.5c0.8,0.2,1.3,0.4,1.7,0.6s0.6,0.5,0.9,0.8c0.2,0.3,0.3,0.7,0.3,1.2c0,0.4-0.1,0.9-0.4,1.2
			c-0.2,0.4-0.6,0.7-1,0.9s-1,0.3-1.7,0.3c-1,0-1.7-0.2-2.3-0.7C243.1,26.8,242.7,26.1,242.6,25.2z"/>
		<path d="M250.2,27.7V20h5.7v1.3h-4.2V23h3.9v1.3h-3.9v2.1h4.3v1.3C256,27.7,250.2,27.7,250.2,27.7z"/>
	</g>
	<g class="st5">
		<path d="M173.7,36.2h2.9c0.6,0,1.1,0,1.5,0.1c0.5,0.1,0.8,0.4,1.2,0.7c0.3,0.3,0.6,0.8,0.7,1.3s0.3,1.1,0.3,1.8
			c0,0.6-0.1,1.2-0.2,1.6c-0.2,0.6-0.5,1-0.8,1.4c-0.3,0.3-0.6,0.5-1.1,0.6c-0.3,0.1-0.8,0.2-1.4,0.2h-2.9v-7.7
			C173.9,36.2,173.7,36.2,173.7,36.2z M175.3,37.5v5.1h1.2c0.4,0,0.8,0,0.9-0.1c0.3-0.1,0.5-0.2,0.6-0.3s0.3-0.4,0.4-0.7
			c0.1-0.3,0.2-0.8,0.2-1.4c0-0.6-0.1-1.1-0.2-1.4c-0.1-0.3-0.3-0.6-0.4-0.7c-0.2-0.2-0.4-0.3-0.7-0.4c-0.2,0-0.6-0.1-1.3-0.1
			C176,37.5,175.3,37.5,175.3,37.5z"/>
		<path d="M186.5,41.1l1.5,0.5c-0.2,0.8-0.6,1.5-1.2,1.9c-0.5,0.4-1.2,0.6-2.1,0.6c-1,0-1.9-0.4-2.5-1.1s-1-1.7-1-2.9
			c0-1.3,0.3-2.3,1-3s1.5-1.1,2.6-1.1c0.9,0,1.7,0.3,2.3,0.8c0.4,0.3,0.6,0.8,0.8,1.4l-1.5,0.4c-0.1-0.4-0.3-0.7-0.6-0.9
			s-0.6-0.3-1.1-0.3c-0.6,0-1,0.2-1.4,0.6s-0.5,1.1-0.5,2c0,1,0.2,1.7,0.5,2.1s0.8,0.6,1.4,0.6c0.4,0,0.8-0.1,1.1-0.4
			C186.1,42.1,186.3,41.7,186.5,41.1z"/>
		<path d="M189.1,41.9v-1.5h2.9v1.5H189.1z"/>
		<path d="M192.9,36.2h2.9c0.6,0,1.1,0,1.5,0.1c0.5,0.1,0.8,0.4,1.2,0.7c0.3,0.3,0.6,0.8,0.7,1.3s0.3,1.1,0.3,1.8
			c0,0.6-0.1,1.2-0.2,1.6c-0.2,0.6-0.5,1-0.8,1.4c-0.3,0.3-0.6,0.5-1.1,0.6c-0.3,0.1-0.8,0.2-1.4,0.2h-2.9v-7.7
			C193.1,36.2,192.9,36.2,192.9,36.2z M194.5,37.5v5.1h1.2c0.4,0,0.8,0,0.9-0.1c0.3-0.1,0.5-0.2,0.6-0.3s0.3-0.4,0.4-0.7
			c0.1-0.3,0.2-0.8,0.2-1.4c0-0.6-0.1-1.1-0.2-1.4c-0.1-0.3-0.3-0.6-0.4-0.7c-0.2-0.2-0.4-0.3-0.7-0.4c-0.2,0-0.6-0.1-1.3-0.1
			C195.2,37.5,194.5,37.5,194.5,37.5z"/>
		<path d="M205.7,41.1l1.5,0.5c-0.2,0.8-0.6,1.5-1.2,1.9c-0.5,0.4-1.2,0.6-2.1,0.6c-1,0-1.9-0.4-2.5-1.1s-1-1.7-1-2.9
			c0-1.3,0.3-2.3,1-3s1.5-1.1,2.6-1.1c0.9,0,1.7,0.3,2.3,0.8c0.4,0.3,0.6,0.8,0.8,1.4l-1.5,0.4c-0.1-0.4-0.3-0.7-0.6-0.9
			s-0.6-0.3-1.1-0.3c-0.6,0-1,0.2-1.4,0.6s-0.5,1.1-0.5,2c0,1,0.2,1.7,0.5,2.1s0.8,0.6,1.4,0.6c0.4,0,0.8-0.1,1.1-0.4
			C205.3,42.1,205.5,41.7,205.7,41.1z"/>
		<path d="M216.5,41.1l1.5,0.5c-0.2,0.8-0.6,1.5-1.2,1.9c-0.5,0.4-1.2,0.6-2.1,0.6c-1,0-1.9-0.4-2.5-1.1s-1-1.7-1-2.9
			c0-1.3,0.3-2.3,1-3s1.5-1.1,2.6-1.1c0.9,0,1.7,0.3,2.3,0.8c0.4,0.3,0.6,0.8,0.8,1.4l-1.5,0.4c-0.1-0.4-0.3-0.7-0.6-0.9
			s-0.6-0.3-1.1-0.3c-0.6,0-1,0.2-1.4,0.6s-0.5,1.1-0.5,2c0,1,0.2,1.7,0.5,2.1s0.8,0.6,1.4,0.6c0.4,0,0.8-0.1,1.1-0.4
			C216.1,42.1,216.3,41.7,216.5,41.1z"/>
		<path d="M219,40.2c0-0.8,0.1-1.4,0.4-2c0.2-0.4,0.4-0.7,0.7-1.1s0.6-0.5,1-0.7c0.5-0.2,1-0.3,1.7-0.3c1.1,0,2.1,0.4,2.7,1.1
			s1,1.7,1,2.9s-0.3,2.2-1,2.9s-1.6,1.1-2.7,1.1c-1.1,0-2.1-0.4-2.7-1.1S219,41.4,219,40.2z M220.6,40.1c0,0.9,0.2,1.5,0.6,2
			c0.4,0.5,0.9,0.7,1.5,0.7s1.1-0.2,1.5-0.7c0.4-0.4,0.6-1.1,0.6-2s-0.2-1.5-0.6-2c-0.4-0.4-0.9-0.7-1.5-0.7s-1.2,0.2-1.6,0.7
			S220.6,39.2,220.6,40.1z"/>
		<path d="M227.7,44v-7.7h1.5l3.2,5.2v-5.2h1.5V44h-1.6l-3.1-5v5H227.7z"/>
		<path d="M237.5,44l-2.8-7.7h1.7l2,5.7l1.9-5.7h1.7l-2.8,7.7H237.5z"/>
		<path d="M242.7,44v-7.7h5.7v1.3h-4.2v1.7h3.9v1.3h-3.9v2.1h4.3V44H242.7z"/>
		<path d="M250,44v-7.7h3.3c0.8,0,1.4,0.1,1.8,0.2c0.4,0.1,0.7,0.4,0.9,0.7c0.2,0.4,0.3,0.8,0.3,1.2c0,0.6-0.2,1.1-0.5,1.4
			c-0.3,0.4-0.9,0.6-1.5,0.7c0.3,0.2,0.6,0.4,0.8,0.6c0.2,0.2,0.5,0.7,0.9,1.3l0.9,1.5H255l-1.1-1.7c-0.4-0.6-0.7-1-0.8-1.1
			c-0.1-0.2-0.3-0.3-0.5-0.3c-0.2-0.1-0.4-0.1-0.8-0.1h-0.3V44H250z M251.5,39.5h1.2c0.7,0,1.2,0,1.4-0.1s0.3-0.2,0.4-0.3
			s0.2-0.3,0.2-0.6s-0.1-0.5-0.2-0.6c-0.1-0.2-0.3-0.3-0.6-0.3c-0.1,0-0.5,0-1.1,0h-1.2L251.5,39.5L251.5,39.5z"/>
		<path d="M259.5,44v-6.4h-2.3v-1.3h6.1v1.3H261V44H259.5z"/>
		<path d="M264.4,44v-7.7h5.7v1.3h-4.2v1.7h3.9v1.3h-3.9v2.1h4.3V44H264.4z"/>
		<path d="M271.6,44v-7.7h3.3c0.8,0,1.4,0.1,1.8,0.2c0.4,0.1,0.7,0.4,0.9,0.7c0.2,0.4,0.3,0.8,0.3,1.2c0,0.6-0.2,1.1-0.5,1.4
			c-0.3,0.4-0.9,0.6-1.5,0.7c0.3,0.2,0.6,0.4,0.8,0.6c0.2,0.2,0.5,0.7,0.9,1.3l0.9,1.5h-1.9l-1.1-1.7c-0.4-0.6-0.7-1-0.8-1.1
			c-0.1-0.2-0.3-0.3-0.5-0.3c-0.2-0.1-0.4-0.1-0.8-0.1h-0.3V44H271.6z M273.1,39.5h1.2c0.7,0,1.2,0,1.4-0.1c0.2-0.1,0.3-0.2,0.4-0.3
			s0.2-0.3,0.2-0.6s-0.1-0.5-0.2-0.6c-0.1-0.2-0.3-0.3-0.6-0.3c-0.1,0-0.5,0-1.1,0h-1.2L273.1,39.5L273.1,39.5z"/>
	</g>
	<line class="st3" x1="357" y1="25.6" x2="282.8" y2="25.6"/>
	<g>
		<line class="st3" x1="191.7" y1="80.6" x2="223.4" y2="80.6"/>
		<line class="st3" x1="191.7" y1="130.7" x2="223.4" y2="130.7"/>
	</g>
	<line class="st3" x1="217.8" y1="71.2" x2="197.3" y2="143.1"/>
	<path class="st3" d="M-3.3-6.5"/>
</g>
<line class="st8" x1="306.2" y1="108.4" x2="336.3" y2="108.4"/>
</svg>
